<svg width="251" height="241" viewBox="0 0 251 241" fill="none" xmlns="http://www.w3.org/2000/svg">
<path d="M151.68 0.5V87.7422L233.656 64.4453L234.104 64.3174L234.263 64.7568L250.666 110.215L250.853 110.732L250.319 110.869L164.38 132.933L223.29 214.153L223.637 214.632L223.106 214.895L169.512 241.448L169.079 241.662L168.85 241.237L127.78 165.09L93.3271 241.206L93.1338 241.634L92.6943 241.468L40.6377 221.809L40.0771 221.597L40.3867 221.083L91.8457 135.49L1.1084 119.563L0.597656 119.474L0.706055 118.967L11.5127 68.373L11.6191 67.8721L12.1182 67.9912L99.6348 88.9453L94.7656 1.02734L94.7363 0.5H151.68Z" stroke="#434343"/>
</svg>
