<?xml version="1.0" encoding="UTF-8"?>
<svg xmlns="http://www.w3.org/2000/svg" width="75" height="66" viewBox="0 0 75 66" fill="none"> <path fill-rule="evenodd" clip-rule="evenodd" d="M37.1287 0.206841C36.1022 1.09165 35.3346 1.74984 34.5221 2.44145C34.0008 2.88519 33.3432 3.45358 33.0609 3.70444C32.7785 3.9553 32.4053 4.28128 32.2315 4.42875C32.0577 4.57629 31.8978 4.71594 31.8761 4.73916C31.8544 4.76239 31.5878 4.99042 31.2837 5.24578C30.9796 5.50123 30.4997 5.91464 30.2174 6.16463C29.1898 7.07432 27.067 8.91162 25.797 9.99042C25.0818 10.5981 24.4243 11.1669 24.3358 11.2547C24.2473 11.3424 23.9439 11.6085 23.6615 11.8461C23.3791 12.0835 22.9526 12.4618 22.7136 12.6866C22.4747 12.9113 22.1134 13.2318 21.9108 13.3985C21.7081 13.5653 21.2259 13.986 20.8391 14.3336C20.4523 14.6811 19.996 15.0874 19.8253 15.2364C19.6544 15.3854 18.803 16.1319 17.9332 16.8951C17.0633 17.6584 16.1392 18.4606 15.8796 18.6778C15.6199 18.895 15.3718 19.1131 15.3284 19.1624C15.2576 19.2427 14.8899 19.5593 13.4734 20.7594C13.2352 20.9613 12.8975 21.2536 12.723 21.409C12.5486 21.5644 12.1571 21.8983 11.853 22.1512C11.5489 22.404 11.0561 22.8273 10.7578 23.0918C10.4597 23.3564 10.1398 23.6255 10.047 23.6899C9.95424 23.7544 9.82502 23.8661 9.75985 23.9382C9.69469 24.0103 9.39257 24.2752 9.08847 24.5269C8.13637 25.3149 7.06333 26.3305 6.94801 26.5528C6.86271 26.7173 6.83735 27.1747 6.83735 28.5511C6.83735 30.4727 6.88411 30.7341 7.24476 30.8284C7.454 30.8831 7.59231 30.783 7.76276 30.4533C7.86963 30.2467 7.88061 29.9935 7.83795 28.7188C7.79593 27.461 7.80731 27.1856 7.91054 26.9681C7.98234 26.8168 8.59117 26.2248 9.3819 25.5374C10.1238 24.8925 10.77 24.3281 10.818 24.283C10.9434 24.1653 12.5226 22.7817 13.1004 22.2833C13.3701 22.0507 13.7151 21.7469 13.8672 21.6081C14.0192 21.4692 14.3571 21.1796 14.618 20.9643C15.0218 20.6312 15.4128 20.2904 15.7936 19.94C15.8419 19.8956 15.9771 19.7854 16.0941 19.695C16.3725 19.4803 16.9108 19.0176 18.5989 17.5423C20.0916 16.2378 21.4658 15.0664 22.308 14.3808C22.5963 14.1461 22.9936 13.8085 23.191 13.6304C23.7638 13.1139 24.1322 12.7891 24.7671 12.2404C25.094 11.9581 25.4341 11.6559 25.523 11.569C25.612 11.4822 26.2115 10.9668 26.8553 10.4237C28.6516 8.9087 28.7082 8.85997 29.6976 7.97516C30.2078 7.51901 30.797 7.00363 31.007 6.82986C31.4377 6.47347 33.0003 5.12186 33.0609 5.05322C33.0826 5.02865 33.4203 4.73664 33.8112 4.40426C34.2022 4.07197 34.6288 3.70658 34.7591 3.59236C34.8894 3.47807 35.0849 3.30975 35.1935 3.21828C35.5117 2.9502 36.4932 2.0947 36.5363 2.04786C36.7461 1.81959 37.5297 1.26131 37.6402 1.26131C37.7591 1.26131 38.2473 1.64487 39.6168 2.81426C39.7254 2.90699 40.0808 3.20817 40.4066 3.4836C40.7324 3.75894 41.0168 4.00419 41.0385 4.02852C41.1005 4.09803 42.7718 5.60944 43.2106 5.99284C43.4279 6.18256 44.2932 6.94613 45.1337 7.68963C45.9741 8.43313 46.8272 9.17812 47.0294 9.34518C47.2315 9.51224 47.7168 9.94208 48.1078 10.3005C48.6955 10.8391 50.0755 12.039 51.9725 13.6607C52.1494 13.812 52.9161 14.4882 53.6764 15.1636C55.1974 16.5146 56.3994 17.5667 57.7836 18.7582C58.667 19.5186 59.175 19.9707 59.6026 20.3767C59.7174 20.4857 60.0393 20.7698 60.3179 21.0081C60.5966 21.2464 60.8424 21.4616 60.8641 21.4864C60.8858 21.5112 61.1377 21.7247 61.424 21.9608C61.7101 22.197 62.6517 22.9944 63.5163 23.733C64.3809 24.4715 65.142 25.1207 65.2076 25.1756C65.2732 25.2306 65.5046 25.4343 65.7218 25.6284C65.939 25.8226 66.1447 25.982 66.1788 25.9827C66.213 25.9834 66.3944 26.1352 66.5821 26.3198C67.1269 26.8558 67.183 27.0923 67.183 28.8511C67.183 30.1 67.2051 30.4036 67.306 30.5477C67.4746 30.7884 67.7644 30.7727 67.934 30.5137C68.0532 30.3319 68.0718 30.0833 68.0749 28.6309C68.0791 26.6532 68.0324 26.4907 67.2777 25.8528C66.6147 25.2926 66.6107 25.289 66.3537 25.0484C66.2234 24.9264 65.7618 24.5094 65.3281 24.1218C64.8944 23.7342 64.4999 23.3815 64.4514 23.338C64.4029 23.2946 64.0846 23.0102 63.7441 22.7061C62.9763 22.0205 62.3792 21.481 61.4151 20.6018C61.0035 20.2264 60.5031 19.7821 60.3032 19.6145C59.9625 19.3288 59.3724 18.8111 58.0601 17.6465C57.5615 17.204 57.0537 16.7685 55.731 15.6485C55.4925 15.4466 55.2145 15.2006 55.1134 15.1018C55.0121 15.0031 54.6563 14.6845 54.3225 14.3938C53.9888 14.1033 53.6092 13.7715 53.4789 13.6567C53.3486 13.5418 52.7976 13.0613 52.2546 12.5888C51.7116 12.1164 51.2495 11.7111 51.2278 11.6882C51.206 11.6653 50.9039 11.3991 50.5564 11.0966C50.2088 10.7941 49.746 10.3857 49.5278 10.189C49.3097 9.99232 48.8885 9.61808 48.5919 9.35743C48.2953 9.09677 47.9548 8.79465 47.8352 8.68604C47.7156 8.57743 47.1796 8.11536 46.6442 7.65922C46.1087 7.20307 45.3099 6.50996 44.869 6.11898C43.9919 5.34096 43.7402 5.11964 42.8552 4.34787C41.9026 3.51717 39.3475 1.23761 39.2613 1.14164C39.2179 1.09323 38.9117 0.81606 38.581 0.525627C38.0567 0.0652147 37.9403 -0.00216014 37.6727 5.14869e-05C37.4587 0.00178919 37.2938 0.0644288 37.1287 0.206841ZM6.98522 59.842C6.89809 59.947 6.87685 60.4971 6.87685 62.6523C6.87685 65.2408 6.88222 65.336 7.03482 65.448C7.1732 65.5496 10.946 65.5611 37.4317 65.5404L67.6706 65.5168L67.8613 65.2952L68.0519 65.0736V62.647C68.0519 60.5786 68.0337 60.1945 67.9289 60.0449C67.7651 59.8109 67.5468 59.8232 67.3468 60.0774C67.1905 60.276 67.183 60.3808 67.183 62.368C67.183 64.3944 67.1785 64.4551 67.0131 64.6205C66.8455 64.7881 66.8165 64.7898 64.9792 64.7376C63.954 64.7084 50.7637 64.6846 35.6674 64.6846C13.7319 64.6847 8.17997 64.6647 8.02215 64.585L7.82468 64.4854L7.80367 62.2037C7.78969 60.6814 7.7536 59.8869 7.6953 59.8167C7.57256 59.6687 7.11546 59.685 6.98522 59.842Z" fill="url(#paint0_linear_353_499)"/> <path d="M18.8493 21.9568V20.0711H19.031V21.7097L20.259 20.0674H20.4262V21.9568H20.2445V20.3436L19.031 21.9568H18.8493ZM21.7337 21.9568V20.0674H21.9154V20.9067H23.0817V20.0674H23.2634V21.9568H23.0817V21.0702H21.9154V21.9568H21.7337ZM24.5755 21.9568V20.0674H25.4875C25.5893 20.0674 25.674 20.0904 25.7419 20.1365C25.8121 20.1801 25.8654 20.2382 25.9017 20.3109C25.9405 20.3811 25.9599 20.455 25.9599 20.5325C25.9599 20.6318 25.9344 20.7226 25.8836 20.805C25.8351 20.8874 25.7673 20.9479 25.6801 20.9867C25.7891 21.0182 25.8763 21.0763 25.9417 21.1611C26.0071 21.2459 26.0398 21.3452 26.0398 21.459C26.0398 21.5559 26.0156 21.6419 25.9671 21.717C25.9211 21.7921 25.8569 21.8514 25.7746 21.895C25.6946 21.9362 25.6026 21.9568 25.4984 21.9568H24.5755ZM24.75 21.8187H25.4948C25.565 21.8187 25.628 21.8006 25.6837 21.7642C25.7394 21.7279 25.783 21.6819 25.8145 21.6261C25.8484 21.568 25.8654 21.5075 25.8654 21.4445C25.8654 21.3767 25.8497 21.3149 25.8182 21.2592C25.7867 21.2035 25.7443 21.1587 25.691 21.1247C25.6377 21.0884 25.5772 21.0702 25.5093 21.0702H24.75V21.8187ZM24.75 20.9394H25.4367C25.5069 20.9394 25.5675 20.9213 25.6183 20.8849C25.6692 20.8462 25.7092 20.7977 25.7382 20.7396C25.7673 20.6815 25.7818 20.6209 25.7818 20.5579C25.7818 20.4635 25.7516 20.3811 25.691 20.3109C25.6304 20.2406 25.5505 20.2055 25.4512 20.2055H24.75V20.9394ZM28.0359 21.9931C27.9026 21.9931 27.7791 21.9677 27.6653 21.9168C27.5514 21.8635 27.4521 21.7921 27.3673 21.7025C27.285 21.6104 27.2196 21.505 27.1711 21.3863C27.1251 21.2652 27.1021 21.1381 27.1021 21.0048C27.1021 20.8256 27.142 20.6633 27.222 20.518C27.3019 20.3726 27.4121 20.2564 27.5526 20.1692C27.6931 20.0795 27.8506 20.0347 28.025 20.0347C28.2042 20.0347 28.3629 20.0795 28.5009 20.1692C28.639 20.2588 28.748 20.3775 28.8279 20.5252C28.9103 20.6706 28.9515 20.8304 28.9515 21.0048C28.9515 21.0194 28.9515 21.0339 28.9515 21.0484C28.9515 21.063 28.9503 21.0751 28.9478 21.0848H27.291C27.3007 21.2277 27.3407 21.3573 27.4109 21.4735C27.4812 21.5898 27.5708 21.6819 27.6798 21.7497C27.7912 21.8151 27.9123 21.8478 28.0431 21.8478C28.1739 21.8478 28.2975 21.8139 28.4137 21.7461C28.53 21.6782 28.6111 21.591 28.6572 21.4844L28.817 21.528C28.7807 21.6177 28.7226 21.6976 28.6426 21.7679C28.5651 21.8381 28.4731 21.8938 28.3665 21.935C28.2623 21.9737 28.1521 21.9931 28.0359 21.9931ZM27.2837 20.9431H28.7771C28.7674 20.7953 28.7286 20.6645 28.6608 20.5507C28.593 20.4368 28.5034 20.3472 28.3919 20.2818C28.2829 20.2164 28.1618 20.1837 28.0286 20.1837C27.8954 20.1837 27.7743 20.2164 27.6653 20.2818C27.5563 20.3472 27.4678 20.4368 27.4 20.5507C27.3322 20.6645 27.2934 20.7953 27.2837 20.9431ZM30.899 21.9931C30.7682 21.9931 30.6459 21.9677 30.532 21.9168C30.4182 21.8635 30.3189 21.7921 30.2341 21.7025C30.1493 21.6104 30.0827 21.505 30.0342 21.3863C29.9882 21.2677 29.9652 21.1405 29.9652 21.0048C29.9652 20.8232 30.0052 20.6597 30.0851 20.5143C30.165 20.369 30.2753 20.2527 30.4158 20.1655C30.5562 20.0783 30.7161 20.0347 30.8954 20.0347C31.0673 20.0347 31.2187 20.0747 31.3495 20.1546C31.4803 20.2321 31.5784 20.3387 31.6438 20.4744L31.4658 20.5325C31.4101 20.4283 31.3302 20.3472 31.226 20.2891C31.1243 20.2285 31.0116 20.1982 30.8881 20.1982C30.75 20.1982 30.6253 20.2334 30.5139 20.3036C30.4024 20.3738 30.3128 20.4707 30.245 20.5943C30.1796 20.7154 30.1469 20.8522 30.1469 21.0048C30.1469 21.155 30.1808 21.2931 30.2486 21.419C30.3164 21.545 30.4061 21.6455 30.5175 21.7206C30.6313 21.7933 30.7561 21.8296 30.8917 21.8296C30.9789 21.8296 31.0637 21.8139 31.1461 21.7824C31.2308 21.7485 31.3035 21.7049 31.3641 21.6516C31.427 21.5983 31.4682 21.5414 31.4876 21.4808L31.6656 21.5317C31.6341 21.6213 31.5796 21.7012 31.5021 21.7715C31.4246 21.8393 31.3338 21.8938 31.2296 21.935C31.1279 21.9737 31.0177 21.9931 30.899 21.9931ZM33.304 21.9568V20.2309H32.61V20.0674H34.1833V20.2309H33.4857V21.9568H33.304ZM35.2794 21.9568V20.0711H35.4611V21.7097L36.6891 20.0674H36.8563V21.9568H36.6746V20.3436L35.4611 21.9568H35.2794ZM39.6898 22.3928V21.9568H38.1638V20.0674H38.3455V21.7933H39.4173V20.0674H39.599V21.7933H39.8533V22.3928H39.6898ZM40.9879 21.9568V20.0711H41.1696V21.7097L42.3977 20.0674H42.5648V21.9568H42.3831V20.3436L41.1696 21.9568H40.9879ZM44.6644 21.9931C44.5312 21.9931 44.4077 21.9677 44.2938 21.9168C44.1824 21.866 44.0855 21.7957 44.0031 21.7061C43.9208 21.614 43.8566 21.5087 43.8106 21.39C43.7645 21.2713 43.7415 21.1465 43.7415 21.0157C43.7415 20.8825 43.7645 20.7578 43.8106 20.6415C43.8566 20.5228 43.9208 20.4187 44.0031 20.329C44.0879 20.237 44.186 20.1655 44.2974 20.1147C44.4113 20.0614 44.5336 20.0347 44.6644 20.0347C44.7952 20.0347 44.9163 20.0614 45.0278 20.1147C45.1392 20.1655 45.2373 20.237 45.3221 20.329C45.4068 20.4187 45.4722 20.5228 45.5183 20.6415C45.5643 20.7578 45.5873 20.8825 45.5873 21.0157C45.5873 21.1465 45.5643 21.2713 45.5183 21.39C45.4722 21.5087 45.4068 21.614 45.3221 21.7061C45.2397 21.7957 45.1416 21.866 45.0278 21.9168C44.9163 21.9677 44.7952 21.9931 44.6644 21.9931ZM43.9232 21.023C43.9232 21.1708 43.9559 21.3064 44.0213 21.4299C44.0891 21.5511 44.1788 21.6479 44.2902 21.7206C44.4016 21.7933 44.5251 21.8296 44.6608 21.8296C44.7964 21.8296 44.92 21.7933 45.0314 21.7206C45.1452 21.6455 45.2349 21.5462 45.3003 21.4227C45.3681 21.2967 45.402 21.1599 45.402 21.0121C45.402 20.8644 45.3681 20.7287 45.3003 20.6052C45.2349 20.4816 45.1452 20.3835 45.0314 20.3109C44.92 20.2358 44.7976 20.1982 44.6644 20.1982C44.5288 20.1982 44.4052 20.2358 44.2938 20.3109C44.1824 20.386 44.0928 20.4853 44.0249 20.6088C43.9571 20.7323 43.9232 20.8704 43.9232 21.023ZM46.7674 21.9568V20.0674H46.9491V20.9067H48.1154V20.0674H48.2971V21.9568H48.1154V21.0702H46.9491V21.9568H46.7674ZM49.6092 21.9568V20.0674H49.7909V20.9067H50.9572V20.0674H51.1389V21.9568H50.9572V21.0702H49.7909V21.9568H49.6092ZM53.2432 21.9931C53.1099 21.9931 52.9864 21.9677 52.8726 21.9168C52.7611 21.866 52.6642 21.7957 52.5819 21.7061C52.4995 21.614 52.4353 21.5087 52.3893 21.39C52.3433 21.2713 52.3203 21.1465 52.3203 21.0157C52.3203 20.8825 52.3433 20.7578 52.3893 20.6415C52.4353 20.5228 52.4995 20.4187 52.5819 20.329C52.6667 20.237 52.7648 20.1655 52.8762 20.1147C52.99 20.0614 53.1124 20.0347 53.2432 20.0347C53.374 20.0347 53.4951 20.0614 53.6065 20.1147C53.7179 20.1655 53.816 20.237 53.9008 20.329C53.9856 20.4187 54.051 20.5228 54.097 20.6415C54.143 20.7578 54.166 20.8825 54.166 21.0157C54.166 21.1465 54.143 21.2713 54.097 21.39C54.051 21.5087 53.9856 21.614 53.9008 21.7061C53.8184 21.7957 53.7203 21.866 53.6065 21.9168C53.4951 21.9677 53.374 21.9931 53.2432 21.9931ZM52.502 21.023C52.502 21.1708 52.5347 21.3064 52.6001 21.4299C52.6679 21.5511 52.7575 21.6479 52.8689 21.7206C52.9803 21.7933 53.1039 21.8296 53.2395 21.8296C53.3752 21.8296 53.4987 21.7933 53.6101 21.7206C53.724 21.6455 53.8136 21.5462 53.879 21.4227C53.9468 21.2967 53.9807 21.1599 53.9807 21.0121C53.9807 20.8644 53.9468 20.7287 53.879 20.6052C53.8136 20.4816 53.724 20.3835 53.6101 20.3109C53.4987 20.2358 53.3764 20.1982 53.2432 20.1982C53.1075 20.1982 52.984 20.2358 52.8726 20.3109C52.7611 20.386 52.6715 20.4853 52.6037 20.6088C52.5359 20.7323 52.502 20.8704 52.502 21.023ZM56.1491 21.9931C56.0159 21.9931 55.8924 21.9677 55.7785 21.9168C55.6647 21.8635 55.5654 21.7921 55.4806 21.7025C55.3982 21.6104 55.3328 21.505 55.2844 21.3863C55.2384 21.2652 55.2153 21.1381 55.2153 21.0048C55.2153 20.8256 55.2553 20.6633 55.3352 20.518C55.4152 20.3726 55.5254 20.2564 55.6659 20.1692C55.8064 20.0795 55.9638 20.0347 56.1382 20.0347C56.3175 20.0347 56.4761 20.0795 56.6142 20.1692C56.7523 20.2588 56.8613 20.3775 56.9412 20.5252C57.0236 20.6706 57.0647 20.8304 57.0647 21.0048C57.0647 21.0194 57.0647 21.0339 57.0647 21.0484C57.0647 21.063 57.0635 21.0751 57.0611 21.0848H55.4043C55.414 21.2277 55.4539 21.3573 55.5242 21.4735C55.5944 21.5898 55.6841 21.6819 55.7931 21.7497C55.9045 21.8151 56.0256 21.8478 56.1564 21.8478C56.2872 21.8478 56.4107 21.8139 56.527 21.7461C56.6433 21.6782 56.7244 21.591 56.7704 21.4844L56.9303 21.528C56.894 21.6177 56.8358 21.6976 56.7559 21.7679C56.6784 21.8381 56.5863 21.8938 56.4798 21.935C56.3756 21.9737 56.2654 21.9931 56.1491 21.9931ZM55.397 20.9431H56.8903C56.8806 20.7953 56.8419 20.6645 56.7741 20.5507C56.7062 20.4368 56.6166 20.3472 56.5052 20.2818C56.3962 20.2164 56.2751 20.1837 56.1419 20.1837C56.0086 20.1837 55.8875 20.2164 55.7785 20.2818C55.6695 20.3472 55.5811 20.4368 55.5133 20.5507C55.4455 20.6645 55.4067 20.7953 55.397 20.9431Z" fill="#A98C66"/> <path d="M27.15 25.914C27.15 25.8001 27.184 25.702 27.2518 25.6197C27.3196 25.5349 27.4129 25.4695 27.5315 25.4235C27.6502 25.375 27.7871 25.3508 27.9421 25.3508C28.039 25.3508 28.1395 25.3593 28.2437 25.3762C28.3478 25.3932 28.4411 25.4162 28.5235 25.4453V25.2672C28.5235 25.0928 28.4726 24.9536 28.3709 24.8494C28.2715 24.7452 28.1335 24.6932 27.9567 24.6932C27.8622 24.6932 27.7641 24.7125 27.6624 24.7513C27.5606 24.7901 27.4565 24.8458 27.3499 24.9184L27.2736 24.7876C27.3971 24.7053 27.5158 24.6435 27.6297 24.6023C27.7459 24.5587 27.861 24.5369 27.9748 24.5369C28.2001 24.5369 28.3781 24.6035 28.5089 24.7368C28.6397 24.87 28.7051 25.0517 28.7051 25.2818V26.2192C28.7051 26.2482 28.7112 26.27 28.7233 26.2846C28.7378 26.2991 28.7584 26.3076 28.7851 26.31V26.459C28.7633 26.4614 28.7451 26.4626 28.7306 26.4626C28.716 26.4626 28.7039 26.4626 28.6942 26.4626C28.6482 26.4554 28.6119 26.436 28.5852 26.4045C28.561 26.373 28.5477 26.3379 28.5453 26.2991V26.1501C28.4581 26.2591 28.3454 26.3439 28.2074 26.4045C28.0717 26.465 27.9288 26.4953 27.7786 26.4953C27.6599 26.4953 27.5521 26.4699 27.4552 26.419C27.3608 26.3681 27.2857 26.2991 27.23 26.2119C27.1767 26.1223 27.15 26.023 27.15 25.914ZM28.4508 26.0702C28.475 26.0387 28.4932 26.0084 28.5053 25.9794C28.5174 25.9503 28.5235 25.9237 28.5235 25.8994V25.587C28.4363 25.5531 28.3454 25.5276 28.251 25.5107C28.1565 25.4937 28.0596 25.4852 27.9603 25.4852C27.7714 25.4852 27.6175 25.5228 27.4988 25.5979C27.3826 25.673 27.3244 25.7747 27.3244 25.9031C27.3244 25.983 27.345 26.0569 27.3862 26.1247C27.4274 26.1925 27.4843 26.247 27.557 26.2882C27.6321 26.3294 27.7181 26.35 27.815 26.35C27.9506 26.35 28.0753 26.3245 28.1892 26.2737C28.3055 26.2204 28.3927 26.1526 28.4508 26.0702ZM29.8755 26.459V24.5696H30.9691V24.7331H30.0571V26.459H29.8755ZM32.7509 26.4953C32.6177 26.4953 32.4941 26.4699 32.3803 26.419C32.2664 26.3657 32.1671 26.2943 32.0824 26.2046C32 26.1126 31.9346 26.0072 31.8862 25.8885C31.8401 25.7674 31.8171 25.6403 31.8171 25.507C31.8171 25.3278 31.8571 25.1655 31.937 25.0202C32.017 24.8748 32.1272 24.7586 32.2677 24.6714C32.4081 24.5817 32.5656 24.5369 32.74 24.5369C32.9192 24.5369 33.0779 24.5817 33.216 24.6714C33.354 24.761 33.463 24.8797 33.543 25.0274C33.6253 25.1728 33.6665 25.3326 33.6665 25.507C33.6665 25.5216 33.6665 25.5361 33.6665 25.5506C33.6665 25.5652 33.6653 25.5773 33.6629 25.587H32.0061C32.0157 25.7299 32.0557 25.8595 32.126 25.9757C32.1962 26.092 32.2858 26.1841 32.3948 26.2519C32.5063 26.3173 32.6274 26.35 32.7582 26.35C32.889 26.35 33.0125 26.3161 33.1288 26.2482C33.245 26.1804 33.3262 26.0932 33.3722 25.9866L33.5321 26.0302C33.4957 26.1199 33.4376 26.1998 33.3577 26.27C33.2802 26.3403 33.1881 26.396 33.0815 26.4372C32.9774 26.4759 32.8672 26.4953 32.7509 26.4953ZM31.9988 25.4453H33.4921C33.4824 25.2975 33.4437 25.1667 33.3758 25.0529C33.308 24.939 33.2184 24.8494 33.107 24.784C32.998 24.7186 32.8769 24.6859 32.7436 24.6859C32.6104 24.6859 32.4893 24.7186 32.3803 24.784C32.2713 24.8494 32.1829 24.939 32.1151 25.0529C32.0472 25.1667 32.0085 25.2975 31.9988 25.4453ZM34.6839 26.459V24.5696H34.8656V25.4089H36.0319V24.5696H36.2135V26.459H36.0319V25.5724H34.8656V26.459H34.6839ZM37.8818 26.459V24.7331H37.1878V24.5696H38.7611V24.7331H38.0635V26.459H37.8818ZM40.533 26.4953C40.4022 26.4953 40.2799 26.4699 40.166 26.419C40.0522 26.3657 39.9529 26.2943 39.8681 26.2046C39.7833 26.1126 39.7167 26.0072 39.6683 25.8885C39.6222 25.7699 39.5992 25.6427 39.5992 25.507C39.5992 25.3254 39.6392 25.1619 39.7191 25.0165C39.7991 24.8712 39.9093 24.7549 40.0498 24.6677C40.1902 24.5805 40.3501 24.5369 40.5294 24.5369C40.7013 24.5369 40.8527 24.5769 40.9835 24.6568C41.1143 24.7343 41.2124 24.8409 41.2778 24.9766L41.0998 25.0347C41.0441 24.9305 40.9642 24.8494 40.86 24.7913C40.7583 24.7307 40.6456 24.7004 40.5221 24.7004C40.384 24.7004 40.2593 24.7356 40.1479 24.8058C40.0364 24.876 39.9468 24.9729 39.879 25.0965C39.8136 25.2176 39.7809 25.3544 39.7809 25.507C39.7809 25.6572 39.8148 25.7953 39.8826 25.9212C39.9504 26.0472 40.0401 26.1477 40.1515 26.2228C40.2653 26.2955 40.3901 26.3318 40.5257 26.3318C40.6129 26.3318 40.6977 26.3161 40.7801 26.2846C40.8648 26.2507 40.9375 26.2071 40.9981 26.1538C41.061 26.1005 41.1022 26.0436 41.1216 25.983L41.2996 26.0339C41.2682 26.1235 41.2137 26.2034 41.1361 26.2737C41.0586 26.3415 40.9678 26.396 40.8636 26.4372C40.7619 26.4759 40.6517 26.4953 40.533 26.4953ZM42.8108 26.459V24.7331H42.1169V24.5696H43.6901V24.7331H42.9925V26.459H42.8108ZM44.6591 26.459V24.5696H45.571C45.6728 24.5696 45.7576 24.5926 45.8254 24.6387C45.8956 24.6823 45.9489 24.7404 45.9853 24.8131C46.024 24.8833 46.0434 24.9572 46.0434 25.0347C46.0434 25.134 46.018 25.2248 45.9671 25.3072C45.9186 25.3896 45.8508 25.4501 45.7636 25.4889C45.8726 25.5204 45.9598 25.5785 46.0252 25.6633C46.0906 25.7481 46.1233 25.8474 46.1233 25.9612C46.1233 26.0581 46.0991 26.1441 46.0507 26.2192C46.0046 26.2943 45.9404 26.3536 45.8581 26.3972C45.7781 26.4384 45.6861 26.459 45.5819 26.459H44.6591ZM44.8335 26.3209H45.5783C45.6486 26.3209 45.7115 26.3027 45.7672 26.2664C45.823 26.2301 45.8666 26.1841 45.8981 26.1283C45.932 26.0702 45.9489 26.0097 45.9489 25.9467C45.9489 25.8789 45.9332 25.8171 45.9017 25.7614C45.8702 25.7057 45.8278 25.6609 45.7745 25.6269C45.7212 25.5906 45.6607 25.5724 45.5928 25.5724H44.8335V26.3209ZM44.8335 25.4416H45.5202C45.5904 25.4416 45.651 25.4235 45.7018 25.3871C45.7527 25.3484 45.7927 25.2999 45.8218 25.2418C45.8508 25.1837 45.8654 25.1231 45.8654 25.0601C45.8654 24.9657 45.8351 24.8833 45.7745 24.8131C45.714 24.7428 45.634 24.7077 45.5347 24.7077H44.8335V25.4416ZM47.9813 26.4953C47.8481 26.4953 47.7246 26.4699 47.6107 26.419C47.4993 26.3681 47.4024 26.2979 47.32 26.2083C47.2377 26.1162 47.1735 26.0109 47.1275 25.8922C47.0814 25.7735 47.0584 25.6487 47.0584 25.5179C47.0584 25.3847 47.0814 25.26 47.1275 25.1437C47.1735 25.025 47.2377 24.9209 47.32 24.8312C47.4048 24.7392 47.5029 24.6677 47.6143 24.6169C47.7282 24.5636 47.8505 24.5369 47.9813 24.5369C48.1121 24.5369 48.2332 24.5636 48.3447 24.6169C48.4561 24.6677 48.5542 24.7392 48.639 24.8312C48.7237 24.9209 48.7891 25.025 48.8352 25.1437C48.8812 25.26 48.9042 25.3847 48.9042 25.5179C48.9042 25.6487 48.8812 25.7735 48.8352 25.8922C48.7891 26.0109 48.7237 26.1162 48.639 26.2083C48.5566 26.2979 48.4585 26.3681 48.3447 26.419C48.2332 26.4699 48.1121 26.4953 47.9813 26.4953ZM47.2401 25.5252C47.2401 25.673 47.2728 25.8086 47.3382 25.9321C47.406 26.0533 47.4957 26.1501 47.6071 26.2228C47.7185 26.2955 47.842 26.3318 47.9777 26.3318C48.1133 26.3318 48.2369 26.2955 48.3483 26.2228C48.4621 26.1477 48.5518 26.0484 48.6172 25.9249C48.685 25.7989 48.7189 25.6621 48.7189 25.5143C48.7189 25.3665 48.685 25.2309 48.6172 25.1074C48.5518 24.9838 48.4621 24.8857 48.3483 24.8131C48.2369 24.738 48.1145 24.7004 47.9813 24.7004C47.8457 24.7004 47.7221 24.738 47.6107 24.8131C47.4993 24.8882 47.4097 24.9875 47.3418 25.111C47.274 25.2345 47.2401 25.3726 47.2401 25.5252Z" fill="#A98C66"/> <path d="M14.3084 35.5236L14.9964 41.8283C15.0648 42.4581 15.2497 42.8209 15.5509 42.9167C15.7494 42.9783 15.9616 43.0091 16.1875 43.0091C16.2628 43.0091 16.3004 43.0297 16.3004 43.0707C16.3004 43.1255 16.2491 43.1529 16.1464 43.1529C15.4687 43.1529 14.8766 43.1323 14.37 43.0913C14.1783 43.0776 14.0825 43.0433 14.0825 42.9886C14.0825 42.9612 14.1065 42.9372 14.1544 42.9167C14.2091 42.8962 14.2228 42.7729 14.1955 42.547L13.7026 37.187L11.1561 42.5881C10.9986 42.9236 10.9028 43.1015 10.8685 43.1221C10.8549 43.1289 10.8377 43.1323 10.8172 43.1323C10.7693 43.1323 10.6632 42.9749 10.4989 42.66C10.3825 42.4341 9.98205 41.64 9.2975 40.2778C9.24274 40.1614 9.00999 39.6651 8.59926 38.7889C8.18853 37.9058 7.95921 37.4027 7.91129 37.2794L7.49029 42.1158C7.4766 42.3348 7.46975 42.4957 7.46975 42.5984C7.46975 42.8106 7.56217 42.9338 7.747 42.968C7.86337 42.9954 7.98659 43.0091 8.11665 43.0091C8.18511 43.0091 8.21934 43.0262 8.21934 43.0605C8.21934 43.1221 8.16799 43.1529 8.06531 43.1529C7.91471 43.1529 7.71277 43.1495 7.45949 43.1426L7.07956 43.1221C7.06587 43.1221 6.94607 43.1255 6.72017 43.1323C6.49427 43.146 6.32656 43.1529 6.21703 43.1529C6.10065 43.1529 6.04247 43.1255 6.04247 43.0707C6.04247 43.0297 6.07669 43.0091 6.14515 43.0091C6.24783 43.0091 6.35051 42.9989 6.4532 42.9783C6.64487 42.9441 6.76809 42.7695 6.82285 42.4546C6.8297 42.4204 6.84339 42.3109 6.86393 42.1261L7.60324 35.4517C7.61693 35.3148 7.65458 35.2463 7.71619 35.2463C7.77096 35.2463 7.8223 35.2977 7.87022 35.4003L11.0123 41.8591L14.0312 35.4106C14.0791 35.3011 14.1304 35.2463 14.1852 35.2463C14.2468 35.2463 14.2879 35.3387 14.3084 35.5236ZM18.6499 36.612L18.6293 41.9412C19.1085 41.3594 19.9882 40.2778 21.2683 38.6965C22.5552 37.1083 23.3185 36.167 23.5581 35.8727C23.9004 35.4551 24.1228 35.2463 24.2255 35.2463C24.2666 35.2463 24.294 35.2669 24.3077 35.3079C24.3282 35.3422 24.3453 35.4312 24.359 35.5749C24.3727 35.7187 24.3795 35.9343 24.3795 36.2218C24.3795 38.7204 24.3898 40.6098 24.4104 41.8899C24.4172 42.2732 24.448 42.5436 24.5028 42.7011C24.5644 42.8517 24.6739 42.9407 24.8314 42.968C24.9067 42.9817 25.0401 42.9954 25.2318 43.0091C25.3345 43.016 25.3858 43.0399 25.3858 43.081C25.3858 43.1289 25.3345 43.1529 25.2318 43.1529C25.0881 43.1529 24.8211 43.146 24.4309 43.1323C24.0407 43.1255 23.8285 43.1221 23.7943 43.1221C23.7326 43.1221 23.5957 43.1255 23.3835 43.1323C23.1782 43.146 23.007 43.1529 22.8701 43.1529C22.7674 43.1529 22.7161 43.1323 22.7161 43.0913C22.7161 43.0433 22.7674 43.016 22.8701 43.0091C23.0207 42.9954 23.12 42.9817 23.1679 42.968C23.3048 42.9407 23.3938 42.8311 23.4349 42.6395C23.4828 42.4478 23.5102 42.1363 23.517 41.7051C23.5307 41.0821 23.5376 40.1854 23.5376 39.0148C23.5444 37.8373 23.5512 37.0159 23.5581 36.5504C23.0378 37.2007 22.076 38.3884 20.6727 40.1135C19.2762 41.8385 18.4856 42.8038 18.3007 43.0091C18.1228 43.2008 17.9961 43.2966 17.9208 43.2966C17.8661 43.2966 17.8284 43.2624 17.8079 43.1939C17.7942 43.1323 17.7873 43.0023 17.7873 42.8038V36.8276C17.7873 36.458 17.7702 36.1876 17.736 36.0164C17.7018 35.8385 17.6573 35.7255 17.6025 35.6776C17.5477 35.6228 17.4588 35.5852 17.3355 35.5646C17.2876 35.5578 17.226 35.551 17.1507 35.5441C17.0754 35.5373 17.0275 35.5338 17.0069 35.5338C16.9316 35.527 16.894 35.503 16.894 35.462C16.894 35.414 16.9625 35.3901 17.0994 35.3901C17.2157 35.3901 17.4211 35.3969 17.7155 35.4106C18.0167 35.4175 18.1878 35.4209 18.2289 35.4209C18.3452 35.4209 18.5232 35.4175 18.7628 35.4106C19.0024 35.3969 19.1667 35.3901 19.2557 35.3901C19.3721 35.3901 19.4303 35.4106 19.4303 35.4517C19.4303 35.4996 19.3858 35.527 19.2968 35.5338C19.1599 35.5475 19.0709 35.5578 19.0298 35.5646C18.8792 35.5989 18.7799 35.6776 18.732 35.8008C18.6841 35.9172 18.6567 36.1876 18.6499 36.612ZM29.3511 36.9611L27.6569 42.0234C27.561 42.2903 27.5131 42.5197 27.5131 42.7113C27.5131 42.8072 27.5508 42.8825 27.6261 42.9372C27.7014 42.9852 27.7869 43.0091 27.8828 43.0091H27.9752C28.0642 43.0091 28.1087 43.0297 28.1087 43.0707C28.1087 43.1255 28.0471 43.1529 27.9239 43.1529C27.828 43.1529 27.6808 43.146 27.4823 43.1323C27.2906 43.1255 27.1811 43.1221 27.1537 43.1221C27.1469 43.1221 26.9997 43.1255 26.7122 43.1323C26.4247 43.146 26.1851 43.1529 25.9934 43.1529C25.8634 43.1529 25.7983 43.1255 25.7983 43.0707C25.7983 43.0297 25.8462 43.0091 25.9421 43.0091C25.9968 43.0091 26.079 43.0023 26.1885 42.9886C26.4076 42.9612 26.5787 42.8688 26.7019 42.7113C26.8252 42.547 26.9415 42.3177 27.0511 42.0234L29.3819 35.6468C29.4778 35.3798 29.5531 35.2463 29.6078 35.2463C29.6626 35.2463 29.7379 35.3695 29.8337 35.616C29.8611 35.6844 30.0323 36.1362 30.3472 36.9714C30.6689 37.8065 31.0146 38.7067 31.3843 39.6719C31.7608 40.6372 32.0414 41.3491 32.2263 41.8077C32.5001 42.4786 32.7944 42.8585 33.1093 42.9475C33.2325 42.9886 33.366 43.0091 33.5098 43.0091C33.5851 43.0091 33.6227 43.0297 33.6227 43.0707C33.6227 43.1255 33.5543 43.1529 33.4174 43.1529C32.815 43.1529 32.2776 43.146 31.8053 43.1323C31.5999 43.1186 31.4972 43.0947 31.4972 43.0605C31.4972 43.0262 31.5212 43.0023 31.5691 42.9886C31.6649 42.9544 31.6855 42.8619 31.6307 42.7113L29.5052 36.9611C29.4504 36.8105 29.3991 36.8105 29.3511 36.9611ZM36.8317 36.9611L35.1375 42.0234C35.0416 42.2903 34.9937 42.5197 34.9937 42.7113C34.9937 42.8072 35.0314 42.8825 35.1067 42.9372C35.182 42.9852 35.2675 43.0091 35.3634 43.0091H35.4558C35.5448 43.0091 35.5893 43.0297 35.5893 43.0707C35.5893 43.1255 35.5277 43.1529 35.4044 43.1529C35.3086 43.1529 35.1614 43.146 34.9629 43.1323C34.7712 43.1255 34.6617 43.1221 34.6343 43.1221C34.6275 43.1221 34.4803 43.1255 34.1928 43.1323C33.9053 43.146 33.6657 43.1529 33.474 43.1529C33.3439 43.1529 33.2789 43.1255 33.2789 43.0707C33.2789 43.0297 33.3268 43.0091 33.4227 43.0091C33.4774 43.0091 33.5596 43.0023 33.6691 42.9886C33.8882 42.9612 34.0593 42.8688 34.1825 42.7113C34.3057 42.547 34.4221 42.3177 34.5316 42.0234L36.8625 35.6468C36.9584 35.3798 37.0337 35.2463 37.0884 35.2463C37.1432 35.2463 37.2185 35.3695 37.3143 35.616C37.3417 35.6844 37.5128 36.1362 37.8277 36.9714C38.1495 37.8065 38.4952 38.7067 38.8648 39.6719C39.2413 40.6372 39.522 41.3491 39.7068 41.8077C39.9806 42.4786 40.275 42.8585 40.5899 42.9475C40.7131 42.9886 40.8466 43.0091 40.9904 43.0091C41.0657 43.0091 41.1033 43.0297 41.1033 43.0707C41.1033 43.1255 41.0349 43.1529 40.8979 43.1529C40.2955 43.1529 39.7582 43.146 39.2858 43.1323C39.0805 43.1186 38.9778 43.0947 38.9778 43.0605C38.9778 43.0262 39.0017 43.0023 39.0497 42.9886C39.1455 42.9544 39.166 42.8619 39.1113 42.7113L36.9857 36.9611C36.931 36.8105 36.8796 36.8105 36.8317 36.9611ZM43.1272 36.612L43.1067 41.9412C43.5858 41.3594 44.4655 40.2778 45.7456 38.6965C47.0326 37.1083 47.7958 36.167 48.0354 35.8727C48.3777 35.4551 48.6002 35.2463 48.7029 35.2463C48.7439 35.2463 48.7713 35.2669 48.785 35.3079C48.8055 35.3422 48.8226 35.4312 48.8363 35.5749C48.85 35.7187 48.8569 35.9343 48.8569 36.2218C48.8569 38.7204 48.8671 40.6098 48.8877 41.8899C48.8945 42.2732 48.9253 42.5436 48.9801 42.7011C49.0417 42.8517 49.1512 42.9407 49.3087 42.968C49.384 42.9817 49.5175 42.9954 49.7091 43.0091C49.8118 43.016 49.8632 43.0399 49.8632 43.081C49.8632 43.1289 49.8118 43.1529 49.7091 43.1529C49.5654 43.1529 49.2984 43.146 48.9082 43.1323C48.518 43.1255 48.3058 43.1221 48.2716 43.1221C48.21 43.1221 48.0731 43.1255 47.8609 43.1323C47.6555 43.146 47.4844 43.1529 47.3474 43.1529C47.2448 43.1529 47.1934 43.1323 47.1934 43.0913C47.1934 43.0433 47.2448 43.016 47.3474 43.0091C47.498 42.9954 47.5973 42.9817 47.6452 42.968C47.7821 42.9407 47.8711 42.8311 47.9122 42.6395C47.9601 42.4478 47.9875 42.1363 47.9943 41.7051C48.008 41.0821 48.0149 40.1854 48.0149 39.0148C48.0217 37.8373 48.0286 37.0159 48.0354 36.5504C47.5152 37.2007 46.5534 38.3884 45.15 40.1135C43.7536 41.8385 42.9629 42.8038 42.7781 43.0091C42.6001 43.2008 42.4735 43.2966 42.3982 43.2966C42.3434 43.2966 42.3057 43.2624 42.2852 43.1939C42.2715 43.1323 42.2647 43.0023 42.2647 42.8038V36.8276C42.2647 36.458 42.2475 36.1876 42.2133 36.0164C42.1791 35.8385 42.1346 35.7255 42.0798 35.6776C42.0251 35.6228 41.9361 35.5852 41.8129 35.5646C41.7649 35.5578 41.7033 35.551 41.628 35.5441C41.5527 35.5373 41.5048 35.5338 41.4843 35.5338C41.409 35.527 41.3713 35.503 41.3713 35.462C41.3713 35.414 41.4398 35.3901 41.5767 35.3901C41.6931 35.3901 41.8984 35.3969 42.1928 35.4106C42.494 35.4175 42.6651 35.4209 42.7062 35.4209C42.8226 35.4209 43.0006 35.4175 43.2401 35.4106C43.4797 35.3969 43.644 35.3901 43.733 35.3901C43.8494 35.3901 43.9076 35.4106 43.9076 35.4517C43.9076 35.4996 43.8631 35.527 43.7741 35.5338C43.6372 35.5475 43.5482 35.5578 43.5071 35.5646C43.3565 35.5989 43.2573 35.6776 43.2093 35.8008C43.1614 35.9172 43.134 36.1876 43.1272 36.612ZM54.9635 43.2966C54.4227 43.2966 53.9264 43.2179 53.4746 43.0605C53.0228 42.8962 52.6463 42.6805 52.3451 42.4136C52.0439 42.1466 51.7872 41.8351 51.575 41.4792C51.3628 41.1232 51.2088 40.7604 51.1129 40.3907C51.0239 40.0211 50.9794 39.6446 50.9794 39.2612C50.9794 38.8231 51.0582 38.3781 51.2156 37.9263C51.3799 37.4745 51.6161 37.0467 51.9241 36.6428C52.239 36.2321 52.6669 35.8966 53.2076 35.6365C53.7484 35.3764 54.3543 35.2463 55.0251 35.2463C56.2025 35.2463 57.1678 35.5954 57.9208 36.2937C58.6806 36.9851 59.0605 37.9195 59.0605 39.0969C59.0605 40.2743 58.6806 41.2704 57.9208 42.085C57.1609 42.8927 56.1752 43.2966 54.9635 43.2966ZM55.2408 42.9064C55.453 42.9064 55.6686 42.8825 55.8877 42.8346C56.1136 42.7798 56.36 42.6771 56.627 42.5265C56.9008 42.3691 57.1404 42.1671 57.3457 41.9207C57.5511 41.6742 57.7223 41.332 57.8592 40.8939C58.0029 40.4557 58.0748 39.9526 58.0748 39.3844C58.0748 38.207 57.7702 37.2829 57.1609 36.612C56.5517 35.9343 55.8158 35.5954 54.9532 35.5954C54.0633 35.5954 53.3411 35.8864 52.7866 36.4682C52.2322 37.0501 51.9549 37.8853 51.9549 38.9737C51.9549 40.1511 52.2664 41.1026 52.8893 41.8283C53.5123 42.547 54.2961 42.9064 55.2408 42.9064ZM62.3196 38.6451H66.6733C66.7144 38.6451 66.7349 38.6246 66.7349 38.5835V38.3679C66.7349 37.1083 66.7281 36.369 66.7144 36.1499C66.7007 35.9651 66.6631 35.8316 66.6014 35.7495C66.5467 35.6605 66.4372 35.5989 66.2729 35.5646C66.1907 35.5441 66.0743 35.5338 65.9237 35.5338C65.869 35.5338 65.8416 35.5133 65.8416 35.4722C65.8416 35.4175 65.8964 35.3901 66.0059 35.3901C66.1428 35.3901 66.3037 35.3935 66.4885 35.4003C66.6733 35.4003 66.8308 35.4038 66.9608 35.4106C67.0909 35.4175 67.1594 35.4209 67.1662 35.4209C67.173 35.4209 67.2381 35.4175 67.3613 35.4106C67.4914 35.4038 67.6351 35.4003 67.7926 35.4003C67.9569 35.3935 68.0835 35.3901 68.1725 35.3901C68.282 35.3901 68.3368 35.4175 68.3368 35.4722C68.3368 35.5133 68.3094 35.5338 68.2546 35.5338C68.2067 35.5338 68.1211 35.5441 67.9979 35.5646C67.861 35.592 67.7652 35.6502 67.7104 35.7392C67.6625 35.8282 67.6317 35.9651 67.618 36.1499C67.6043 36.369 67.5975 37.1083 67.5975 38.3679V40.1751C67.5975 41.373 67.6146 42.1158 67.6488 42.4033C67.6693 42.5744 67.7036 42.7079 67.7515 42.8038C67.8063 42.8927 67.9055 42.9475 68.0493 42.968C68.2409 42.9954 68.395 43.0091 68.5113 43.0091C68.5661 43.0091 68.5935 43.0297 68.5935 43.0707C68.5935 43.1255 68.5387 43.1529 68.4292 43.1529C68.2649 43.1529 68.0801 43.1495 67.8747 43.1426C67.6762 43.1426 67.5085 43.1392 67.3716 43.1323C67.2415 43.1255 67.173 43.1221 67.1662 43.1221C67.1594 43.1221 67.0909 43.1221 66.9608 43.1221C66.8376 43.1289 66.6939 43.1358 66.5296 43.1426C66.3721 43.1495 66.2489 43.1529 66.1599 43.1529C66.0504 43.1529 65.9956 43.1255 65.9956 43.0707C65.9956 43.0297 66.023 43.0091 66.0778 43.0091C66.1599 43.0091 66.2626 42.9954 66.3858 42.968C66.5364 42.9407 66.6357 42.7524 66.6836 42.4033C66.7178 42.1158 66.7349 41.373 66.7349 40.1751V39.0969C66.7349 39.0558 66.7144 39.0353 66.6733 39.0353H62.3196C62.2785 39.0353 62.258 39.0558 62.258 39.0969V40.1751C62.258 41.373 62.2751 42.1158 62.3093 42.4033C62.3299 42.5744 62.3641 42.7079 62.412 42.8038C62.4668 42.8927 62.566 42.9475 62.7098 42.968C62.9015 42.9954 63.0555 43.0091 63.1719 43.0091C63.2266 43.0091 63.254 43.0297 63.254 43.0707C63.254 43.1255 63.1992 43.1529 63.0897 43.1529C62.9254 43.1529 62.7406 43.1495 62.5352 43.1426C62.3367 43.1426 62.169 43.1392 62.0321 43.1323C61.902 43.1255 61.8336 43.1221 61.8267 43.1221C61.8199 43.1221 61.7514 43.1221 61.6213 43.1221C61.4981 43.1289 61.3544 43.1358 61.1901 43.1426C61.0326 43.1495 60.9094 43.1529 60.8204 43.1529C60.7109 43.1529 60.6561 43.1255 60.6561 43.0707C60.6561 43.0297 60.6835 43.0091 60.7383 43.0091C60.8204 43.0091 60.9231 42.9954 61.0463 42.968C61.1969 42.9407 61.2962 42.7524 61.3441 42.4033C61.3783 42.1158 61.3954 41.373 61.3954 40.1751V38.3679C61.3954 37.1083 61.3886 36.369 61.3749 36.1499C61.3612 35.9651 61.3236 35.8316 61.262 35.7495C61.2072 35.6605 61.0977 35.5989 60.9334 35.5646C60.8512 35.5441 60.7349 35.5338 60.5843 35.5338C60.5295 35.5338 60.5021 35.5133 60.5021 35.4722C60.5021 35.4175 60.5569 35.3901 60.6664 35.3901C60.8033 35.3901 60.9642 35.3935 61.149 35.4003C61.3338 35.4003 61.4913 35.4038 61.6213 35.4106C61.7514 35.4175 61.8199 35.4209 61.8267 35.4209C61.8336 35.4209 61.8986 35.4175 62.0218 35.4106C62.1519 35.4038 62.2956 35.4003 62.4531 35.4003C62.6174 35.3935 62.744 35.3901 62.833 35.3901C62.9425 35.3901 62.9973 35.4175 62.9973 35.4722C62.9973 35.5133 62.9699 35.5338 62.9151 35.5338C62.8672 35.5338 62.7817 35.5441 62.6584 35.5646C62.5215 35.592 62.4257 35.6502 62.3709 35.7392C62.323 35.8282 62.2922 35.9651 62.2785 36.1499C62.2648 36.369 62.258 37.1083 62.258 38.3679V38.5835C62.258 38.6246 62.2785 38.6451 62.3196 38.6451Z" fill="url(#paint1_linear_353_499)"/> <path d="M1.96202 51.1251H6.31576C6.35683 51.1251 6.37737 51.1046 6.37737 51.0635V50.8479C6.37737 49.5883 6.37052 48.849 6.35683 48.6299C6.34314 48.4451 6.30549 48.3116 6.24388 48.2295C6.18912 48.1405 6.07959 48.0788 5.9153 48.0446C5.83315 48.0241 5.71678 48.0138 5.56618 48.0138C5.51141 48.0138 5.48403 47.9933 5.48403 47.9522C5.48403 47.8974 5.5388 47.8701 5.64832 47.8701C5.78523 47.8701 5.9461 47.8735 6.13093 47.8803C6.31576 47.8803 6.47321 47.8838 6.60327 47.8906C6.73334 47.8974 6.80179 47.9009 6.80864 47.9009C6.81548 47.9009 6.88051 47.8974 7.00373 47.8906C7.1338 47.8838 7.27755 47.8803 7.435 47.8803C7.59929 47.8735 7.72593 47.8701 7.81492 47.8701C7.92445 47.8701 7.97922 47.8974 7.97922 47.9522C7.97922 47.9933 7.95183 48.0138 7.89707 48.0138C7.84915 48.0138 7.76358 48.0241 7.64036 48.0446C7.50345 48.072 7.40762 48.1302 7.35285 48.2192C7.30493 48.3082 7.27413 48.4451 7.26044 48.6299C7.24675 48.849 7.2399 49.5883 7.2399 50.8479V52.6551C7.2399 53.853 7.25702 54.5958 7.29124 54.8833C7.31178 55.0544 7.34601 55.1879 7.39393 55.2837C7.44869 55.3727 7.54795 55.4275 7.69171 55.448C7.88338 55.4754 8.0374 55.4891 8.15378 55.4891C8.20854 55.4891 8.23592 55.5096 8.23592 55.5507C8.23592 55.6055 8.18116 55.6329 8.07163 55.6329C7.90734 55.6329 7.72251 55.6294 7.51714 55.6226C7.31863 55.6226 7.15091 55.6192 7.014 55.6123C6.88394 55.6055 6.81548 55.6021 6.80864 55.6021C6.80179 55.6021 6.73334 55.6021 6.60327 55.6021C6.48005 55.6089 6.3363 55.6157 6.172 55.6226C6.01456 55.6294 5.89134 55.6329 5.80235 55.6329C5.69282 55.6329 5.63806 55.6055 5.63806 55.5507C5.63806 55.5096 5.66544 55.4891 5.7202 55.4891C5.80235 55.4891 5.90503 55.4754 6.02825 55.448C6.17885 55.4206 6.27811 55.2324 6.32603 54.8833C6.36026 54.5958 6.37737 53.853 6.37737 52.6551V51.5769C6.37737 51.5358 6.35683 51.5153 6.31576 51.5153H1.96202C1.92095 51.5153 1.90041 51.5358 1.90041 51.5769V52.6551C1.90041 53.853 1.91753 54.5958 1.95176 54.8833C1.97229 55.0544 2.00652 55.1879 2.05444 55.2837C2.1092 55.3727 2.20846 55.4275 2.35222 55.448C2.54389 55.4754 2.69792 55.4891 2.81429 55.4891C2.86905 55.4891 2.89643 55.5096 2.89643 55.5507C2.89643 55.6055 2.84167 55.6329 2.73214 55.6329C2.56785 55.6329 2.38302 55.6294 2.17766 55.6226C1.97914 55.6226 1.81142 55.6192 1.67451 55.6123C1.54445 55.6055 1.47599 55.6021 1.46915 55.6021C1.4623 55.6021 1.39385 55.6021 1.26378 55.6021C1.14056 55.6089 0.996809 55.6157 0.832517 55.6226C0.675071 55.6294 0.551852 55.6329 0.46286 55.6329C0.353332 55.6329 0.298569 55.6055 0.298569 55.5507C0.298569 55.5096 0.325951 55.4891 0.380714 55.4891C0.46286 55.4891 0.565543 55.4754 0.688762 55.448C0.839363 55.4206 0.938622 55.2324 0.986541 54.8833C1.02077 54.5958 1.03788 53.853 1.03788 52.6551V50.8479C1.03788 49.5883 1.03104 48.849 1.01735 48.6299C1.00365 48.4451 0.966004 48.3116 0.904395 48.2295C0.849631 48.1405 0.740103 48.0788 0.575811 48.0446C0.493665 48.0241 0.377292 48.0138 0.226691 48.0138C0.171927 48.0138 0.144545 47.9933 0.144545 47.9522C0.144545 47.8974 0.199309 47.8701 0.308837 47.8701C0.445747 47.8701 0.606616 47.8735 0.791444 47.8803C0.976273 47.8803 1.13372 47.8838 1.26378 47.8906C1.39385 47.8974 1.4623 47.9009 1.46915 47.9009C1.47599 47.9009 1.54103 47.8974 1.66425 47.8906C1.79431 47.8838 1.93807 47.8803 2.09551 47.8803C2.2598 47.8735 2.38644 47.8701 2.47544 47.8701C2.58496 47.8701 2.63973 47.8974 2.63973 47.9522C2.63973 47.9933 2.61235 48.0138 2.55758 48.0138C2.50966 48.0138 2.4241 48.0241 2.30088 48.0446C2.16397 48.072 2.06813 48.1302 2.01337 48.2192C1.96545 48.3082 1.93464 48.4451 1.92095 48.6299C1.90726 48.849 1.90041 49.5883 1.90041 50.8479V51.0635C1.90041 51.1046 1.92095 51.1251 1.96202 51.1251ZM13.5574 52.6037H11.3497C11.3018 52.6037 11.2675 52.6311 11.247 52.6859L10.6309 54.5033C10.5351 54.7703 10.4872 54.9996 10.4872 55.1913C10.4872 55.2872 10.5248 55.3625 10.6001 55.4172C10.6754 55.4651 10.761 55.4891 10.8568 55.4891H10.9492C11.0382 55.4891 11.0827 55.5096 11.0827 55.5507C11.0827 55.6055 11.0211 55.6329 10.8979 55.6329C10.802 55.6329 10.6549 55.626 10.4563 55.6123C10.2647 55.6055 10.1551 55.6021 10.1278 55.6021C10.1209 55.6021 9.97374 55.6055 9.68623 55.6123C9.39872 55.626 9.15913 55.6329 8.96745 55.6329C8.83739 55.6329 8.77236 55.6055 8.77236 55.5507C8.77236 55.5096 8.82028 55.4891 8.91611 55.4891C8.97088 55.4891 9.05302 55.4823 9.16255 55.4686C9.38161 55.4412 9.55274 55.3488 9.67596 55.1913C9.79918 55.027 9.91556 54.7977 10.0251 54.5033L12.356 48.1268C12.4518 47.8598 12.5271 47.7263 12.5819 47.7263C12.6366 47.7263 12.7119 47.8495 12.8078 48.096C12.8352 48.1644 13.0063 48.6162 13.3212 49.4514C13.6429 50.2865 13.9886 51.1867 14.3583 52.1519C14.7348 53.1171 15.0155 53.8291 15.2003 54.2877C15.4741 54.9586 15.7685 55.3385 16.0833 55.4275C16.2066 55.4686 16.3401 55.4891 16.4838 55.4891C16.5591 55.4891 16.5968 55.5096 16.5968 55.5507C16.5968 55.6055 16.5283 55.6329 16.3914 55.6329C15.789 55.6329 15.2516 55.626 14.7793 55.6123C14.5739 55.5986 14.4712 55.5747 14.4712 55.5404C14.4712 55.5062 14.4952 55.4823 14.5431 55.4686C14.6389 55.4343 14.6595 55.3419 14.6047 55.1913L13.6498 52.6653C13.6292 52.6243 13.5984 52.6037 13.5574 52.6037ZM11.4626 52.2341H13.4239C13.4649 52.2341 13.4786 52.2101 13.4649 52.1622L12.4895 49.3898C12.4415 49.2323 12.3902 49.2323 12.3354 49.3898L11.4318 52.1622C11.4113 52.2101 11.4216 52.2341 11.4626 52.2341ZM21.6117 52.6551V50.8479C21.6117 49.5883 21.6048 48.849 21.5911 48.6299C21.5774 48.4451 21.5398 48.3116 21.4782 48.2295C21.4234 48.1405 21.3139 48.0788 21.1496 48.0446C21.0675 48.0241 20.9511 48.0138 20.8005 48.0138C20.7457 48.0138 20.7183 47.9933 20.7183 47.9522C20.7183 47.8974 20.7731 47.8701 20.8826 47.8701C21.0195 47.8701 21.177 47.8735 21.355 47.8803C21.533 47.8803 21.687 47.8838 21.817 47.8906C21.9539 47.8974 22.0292 47.9009 22.0429 47.9009C22.0977 47.9009 22.2825 47.8974 22.5974 47.8906C22.9123 47.8769 23.1588 47.8701 23.3367 47.8701C24.1924 47.8701 24.8291 48.0652 25.2466 48.4554C25.5889 48.7839 25.76 49.2323 25.76 49.8005C25.76 50.4714 25.5205 51.0258 25.0413 51.4639C24.5621 51.9021 23.9597 52.1211 23.2341 52.1211C23.1245 52.1211 23.0527 52.1177 23.0184 52.1108C22.9431 52.1108 22.9055 52.0869 22.9055 52.039C22.9055 51.9774 22.9979 51.9466 23.1827 51.9466C23.6893 51.9466 24.1103 51.7857 24.4457 51.4639C24.788 51.1422 24.9591 50.7178 24.9591 50.1907C24.9591 49.5814 24.7674 49.0817 24.3841 48.6915C24.0487 48.3492 23.5798 48.1781 22.9774 48.1781C22.7788 48.1781 22.6317 48.1986 22.5358 48.2397C22.4811 48.2603 22.4537 48.3253 22.4537 48.4348V52.6551C22.4537 53.853 22.4708 54.5958 22.505 54.8833C22.5255 55.0544 22.5598 55.1879 22.6077 55.2837C22.6625 55.3727 22.7617 55.4275 22.9055 55.448C23.0971 55.4754 23.2512 55.4891 23.3675 55.4891C23.4223 55.4891 23.4497 55.5096 23.4497 55.5507C23.4497 55.6055 23.3949 55.6329 23.2854 55.6329C23.1211 55.6329 22.9363 55.6294 22.7309 55.6226C22.5324 55.6226 22.3647 55.6192 22.2278 55.6123C22.0977 55.6055 22.0292 55.6021 22.0224 55.6021H21.8376C21.7144 55.6089 21.5706 55.6157 21.4063 55.6226C21.2489 55.6294 21.1256 55.6329 21.0367 55.6329C20.9271 55.6329 20.8724 55.6055 20.8724 55.5507C20.8724 55.5096 20.8997 55.4891 20.9545 55.4891C21.0367 55.4891 21.1393 55.4754 21.2626 55.448C21.4132 55.4206 21.5124 55.2324 21.5603 54.8833C21.5946 54.5958 21.6117 53.853 21.6117 52.6551ZM28.1019 52.6551V50.8479C28.1019 49.5883 28.0951 48.849 28.0814 48.6299C28.0677 48.4451 28.03 48.3116 27.9684 48.2295C27.9137 48.1405 27.8041 48.0788 27.6399 48.0446C27.6193 48.0378 27.5919 48.0344 27.5577 48.0344C27.5235 48.0275 27.4824 48.0241 27.4345 48.0241C27.3934 48.0172 27.3626 48.0138 27.3421 48.0138C27.2531 48.0001 27.2086 47.9796 27.2086 47.9522C27.2086 47.8974 27.2634 47.8701 27.3729 47.8701C27.7152 47.8701 28.1019 47.8803 28.5332 47.9009C29.9434 47.9009 30.7272 47.8974 30.8846 47.8906C31.1379 47.8769 31.2954 47.8564 31.357 47.829C31.4117 47.8016 31.4494 47.7879 31.4699 47.7879C31.4973 47.7879 31.511 47.8187 31.511 47.8803C31.511 47.894 31.4973 47.9522 31.4699 48.0549C31.4494 48.1507 31.4357 48.2534 31.4288 48.3629L31.3878 48.979C31.3741 49.0954 31.3467 49.1536 31.3056 49.1536C31.2509 49.1536 31.2235 49.1091 31.2235 49.0201C31.2235 48.8832 31.2064 48.7702 31.1721 48.6813C31.1037 48.469 30.8572 48.3424 30.4328 48.3013C30.2548 48.2808 29.7859 48.2705 29.0261 48.2705C28.985 48.2705 28.9645 48.3048 28.9645 48.3732V51.2072C28.9645 51.2757 28.985 51.3099 29.0261 51.3099C29.9571 51.3099 30.5013 51.3031 30.6587 51.2894C30.9188 51.2689 31.09 51.2107 31.1721 51.1148C31.2269 51.0464 31.268 51.0121 31.2954 51.0121C31.3296 51.0121 31.3467 51.0395 31.3467 51.0943C31.3467 51.108 31.3398 51.1388 31.3262 51.1867C31.3193 51.2346 31.309 51.3031 31.2954 51.3921C31.2817 51.4811 31.2714 51.5735 31.2645 51.6693C31.2509 51.7925 31.2406 51.9397 31.2337 52.1108C31.2269 52.2751 31.2235 52.3607 31.2235 52.3676C31.2098 52.4702 31.1858 52.5216 31.1516 52.5216C31.1037 52.5216 31.0797 52.4668 31.0797 52.3573C31.0797 52.2478 31.066 52.1519 31.0386 52.0698C30.9907 51.8781 30.8127 51.7651 30.5047 51.7309C30.1966 51.6967 29.7072 51.6796 29.0363 51.6796C28.9884 51.6796 28.9645 51.7035 28.9645 51.7515V52.6551C28.9645 52.7167 28.9645 52.8947 28.9645 53.189C28.9645 53.4765 28.9645 53.7367 28.9645 53.9694C28.9645 54.2021 28.9645 54.3493 28.9645 54.4109C28.9782 54.6368 29.0055 54.808 29.0466 54.9243C29.0945 55.0339 29.1801 55.1126 29.3033 55.1605C29.4539 55.2221 29.738 55.2529 30.1556 55.2529C30.5663 55.2529 30.8744 55.2221 31.0797 55.1605C31.2372 55.1126 31.3535 55.0339 31.4288 54.9243C31.5041 54.808 31.5623 54.6334 31.6034 54.4007C31.6239 54.298 31.6547 54.2466 31.6958 54.2466C31.7369 54.2466 31.7574 54.298 31.7574 54.4007C31.7574 54.4486 31.7403 54.6026 31.7061 54.8627C31.6719 55.1229 31.6445 55.3008 31.6239 55.3967C31.5897 55.5268 31.5418 55.6021 31.4802 55.6226C31.4186 55.65 31.2817 55.6637 31.0694 55.6637C30.8709 55.6637 30.3712 55.6534 29.5703 55.6329C28.7488 55.6123 28.321 55.6021 28.2868 55.6021C28.2183 55.6021 28.0985 55.6089 27.9274 55.6226C27.7562 55.6363 27.6227 55.6397 27.5269 55.6329C27.4174 55.6329 27.3626 55.6055 27.3626 55.5507C27.3626 55.5233 27.4003 55.5028 27.4756 55.4891C27.6056 55.4754 27.6844 55.4651 27.7117 55.4583C27.835 55.4309 27.9239 55.3522 27.9787 55.2221C28.0403 55.0921 28.0745 54.849 28.0814 54.4931C28.0951 53.9591 28.1019 53.3465 28.1019 52.6551ZM41.2931 48.0035L41.9811 54.3083C42.0495 54.938 42.2343 55.3008 42.5356 55.3967C42.7341 55.4583 42.9463 55.4891 43.1722 55.4891C43.2475 55.4891 43.2851 55.5096 43.2851 55.5507C43.2851 55.6055 43.2338 55.6329 43.1311 55.6329C42.4534 55.6329 41.8613 55.6123 41.3547 55.5712C41.163 55.5576 41.0672 55.5233 41.0672 55.4686C41.0672 55.4412 41.0912 55.4172 41.1391 55.3967C41.1938 55.3761 41.2075 55.2529 41.1801 55.027L40.6873 49.667L38.1407 55.0681C37.9833 55.4035 37.8875 55.5815 37.8532 55.6021C37.8395 55.6089 37.8224 55.6123 37.8019 55.6123C37.754 55.6123 37.6479 55.4549 37.4836 55.14C37.3672 54.9141 36.9667 54.12 36.2822 52.7577C36.2274 52.6414 35.9947 52.1451 35.5839 51.2689C35.1732 50.3858 34.9439 49.8826 34.896 49.7594L34.475 54.5958C34.4613 54.8148 34.4544 54.9757 34.4544 55.0784C34.4544 55.2906 34.5469 55.4138 34.7317 55.448C34.8481 55.4754 34.9713 55.4891 35.1013 55.4891C35.1698 55.4891 35.204 55.5062 35.204 55.5404C35.204 55.6021 35.1527 55.6329 35.05 55.6329C34.8994 55.6329 34.6975 55.6294 34.4442 55.6226L34.0642 55.6021C34.0506 55.6021 33.9308 55.6055 33.7049 55.6123C33.479 55.626 33.3112 55.6329 33.2017 55.6329C33.0853 55.6329 33.0272 55.6055 33.0272 55.5507C33.0272 55.5096 33.0614 55.4891 33.1298 55.4891C33.2325 55.4891 33.3352 55.4788 33.4379 55.4583C33.6296 55.4241 33.7528 55.2495 33.8075 54.9346C33.8144 54.9004 33.8281 54.7909 33.8486 54.606L34.5879 47.9317C34.6016 47.7948 34.6393 47.7263 34.7009 47.7263C34.7556 47.7263 34.807 47.7776 34.8549 47.8803L37.997 54.3391L41.0158 47.8906C41.0638 47.7811 41.1151 47.7263 41.1699 47.7263C41.2315 47.7263 41.2726 47.8187 41.2931 48.0035ZM48.0373 55.7766C47.4965 55.7766 47.0002 55.6979 46.5484 55.5404C46.0966 55.3761 45.7201 55.1605 45.4189 54.8935C45.1177 54.6266 44.861 54.3151 44.6488 53.9591C44.4366 53.6032 44.2826 53.2404 44.1867 52.8707C44.0977 52.501 44.0532 52.1245 44.0532 51.7412C44.0532 51.3031 44.132 50.8581 44.2894 50.4063C44.4537 49.9545 44.6899 49.5267 44.9979 49.1228C45.3128 48.7121 45.7407 48.3766 46.2815 48.1165C46.8222 47.8564 47.4281 47.7263 48.0989 47.7263C49.2764 47.7263 50.2416 48.0754 50.9946 48.7737C51.7544 49.4651 52.1344 50.3995 52.1344 51.5769C52.1344 52.7543 51.7544 53.7503 50.9946 54.565C50.2347 55.3727 49.249 55.7766 48.0373 55.7766ZM48.3146 55.3864C48.5268 55.3864 48.7424 55.3625 48.9615 55.3145C49.1874 55.2598 49.4338 55.1571 49.7008 55.0065C49.9746 54.849 50.2142 54.6471 50.4196 54.4007C50.6249 54.1542 50.7961 53.812 50.933 53.3738C51.0767 52.9357 51.1486 52.4326 51.1486 51.8644C51.1486 50.687 50.844 49.7628 50.2347 49.092C49.6255 48.4143 48.8896 48.0754 48.0271 48.0754C47.1371 48.0754 46.4149 48.3664 45.8605 48.9482C45.306 49.5301 45.0287 50.3652 45.0287 51.4537C45.0287 52.6311 45.3402 53.5826 45.9631 54.3083C46.5861 55.027 47.3699 55.3864 48.3146 55.3864ZM55.4961 51.1251H59.8498C59.8909 51.1251 59.9114 51.1046 59.9114 51.0635V50.8479C59.9114 49.5883 59.9046 48.849 59.8909 48.6299C59.8772 48.4451 59.8395 48.3116 59.7779 48.2295C59.7232 48.1405 59.6136 48.0788 59.4494 48.0446C59.3672 48.0241 59.2508 48.0138 59.1002 48.0138C59.0455 48.0138 59.0181 47.9933 59.0181 47.9522C59.0181 47.8974 59.0729 47.8701 59.1824 47.8701C59.3193 47.8701 59.4802 47.8735 59.665 47.8803C59.8498 47.8803 60.0073 47.8838 60.1373 47.8906C60.2674 47.8974 60.3358 47.9009 60.3427 47.9009C60.3495 47.9009 60.4146 47.8974 60.5378 47.8906C60.6679 47.8838 60.8116 47.8803 60.9691 47.8803C61.1333 47.8735 61.26 47.8701 61.349 47.8701C61.4585 47.8701 61.5133 47.8974 61.5133 47.9522C61.5133 47.9933 61.4859 48.0138 61.4311 48.0138C61.3832 48.0138 61.2976 48.0241 61.1744 48.0446C61.0375 48.072 60.9417 48.1302 60.8869 48.2192C60.839 48.3082 60.8082 48.4451 60.7945 48.6299C60.7808 48.849 60.774 49.5883 60.774 50.8479V52.6551C60.774 53.853 60.7911 54.5958 60.8253 54.8833C60.8458 55.0544 60.8801 55.1879 60.928 55.2837C60.9827 55.3727 61.082 55.4275 61.2258 55.448C61.4174 55.4754 61.5715 55.4891 61.6878 55.4891C61.7426 55.4891 61.77 55.5096 61.77 55.5507C61.77 55.6055 61.7152 55.6329 61.6057 55.6329C61.4414 55.6329 61.2566 55.6294 61.0512 55.6226C60.8527 55.6226 60.685 55.6192 60.5481 55.6123C60.418 55.6055 60.3495 55.6021 60.3427 55.6021C60.3358 55.6021 60.2674 55.6021 60.1373 55.6021C60.0141 55.6089 59.8704 55.6157 59.7061 55.6226C59.5486 55.6294 59.4254 55.6329 59.3364 55.6329C59.2269 55.6329 59.1721 55.6055 59.1721 55.5507C59.1721 55.5096 59.1995 55.4891 59.2543 55.4891C59.3364 55.4891 59.4391 55.4754 59.5623 55.448C59.7129 55.4206 59.8122 55.2324 59.8601 54.8833C59.8943 54.5958 59.9114 53.853 59.9114 52.6551V51.5769C59.9114 51.5358 59.8909 51.5153 59.8498 51.5153H55.4961C55.455 51.5153 55.4345 51.5358 55.4345 51.5769V52.6551C55.4345 53.853 55.4516 54.5958 55.4858 54.8833C55.5064 55.0544 55.5406 55.1879 55.5885 55.2837C55.6433 55.3727 55.7425 55.4275 55.8863 55.448C56.0779 55.4754 56.232 55.4891 56.3483 55.4891C56.4031 55.4891 56.4305 55.5096 56.4305 55.5507C56.4305 55.6055 56.3757 55.6329 56.2662 55.6329C56.1019 55.6329 55.9171 55.6294 55.7117 55.6226C55.5132 55.6226 55.3455 55.6192 55.2086 55.6123C55.0785 55.6055 55.0101 55.6021 55.0032 55.6021C54.9964 55.6021 54.9279 55.6021 54.7978 55.6021C54.6746 55.6089 54.5309 55.6157 54.3666 55.6226C54.2091 55.6294 54.0859 55.6329 53.9969 55.6329C53.8874 55.6329 53.8326 55.6055 53.8326 55.5507C53.8326 55.5096 53.86 55.4891 53.9148 55.4891C53.9969 55.4891 54.0996 55.4754 54.2228 55.448C54.3734 55.4206 54.4727 55.2324 54.5206 54.8833C54.5548 54.5958 54.5719 53.853 54.5719 52.6551V50.8479C54.5719 49.5883 54.5651 48.849 54.5514 48.6299C54.5377 48.4451 54.5001 48.3116 54.4385 48.2295C54.3837 48.1405 54.2742 48.0788 54.1099 48.0446C54.0277 48.0241 53.9113 48.0138 53.7607 48.0138C53.706 48.0138 53.6786 47.9933 53.6786 47.9522C53.6786 47.8974 53.7334 47.8701 53.8429 47.8701C53.9798 47.8701 54.1407 47.8735 54.3255 47.8803C54.5103 47.8803 54.6678 47.8838 54.7978 47.8906C54.9279 47.8974 54.9964 47.9009 55.0032 47.9009C55.0101 47.9009 55.0751 47.8974 55.1983 47.8906C55.3284 47.8838 55.4721 47.8803 55.6296 47.8803C55.7939 47.8735 55.9205 47.8701 56.0095 47.8701C56.119 47.8701 56.1738 47.8974 56.1738 47.9522C56.1738 47.9933 56.1464 48.0138 56.0916 48.0138C56.0437 48.0138 55.9582 48.0241 55.8349 48.0446C55.698 48.072 55.6022 48.1302 55.5474 48.2192C55.4995 48.3082 55.4687 48.4451 55.455 48.6299C55.4413 48.849 55.4345 49.5883 55.4345 50.8479V51.0635C55.4345 51.1046 55.455 51.1251 55.4961 51.1251ZM66.388 48.3116V52.6551C66.388 53.853 66.4051 54.5958 66.4393 54.8833C66.4598 55.0544 66.4941 55.1879 66.542 55.2837C66.5967 55.3727 66.696 55.4275 66.8398 55.448C67.0314 55.4754 67.1855 55.4891 67.3018 55.4891C67.3566 55.4891 67.384 55.5096 67.384 55.5507C67.384 55.6055 67.3292 55.6329 67.2197 55.6329C67.0554 55.6329 66.8706 55.6294 66.6652 55.6226C66.4667 55.6226 66.299 55.6192 66.1621 55.6123C66.032 55.6055 65.9635 55.6021 65.9567 55.6021C65.9498 55.6021 65.8814 55.6021 65.7513 55.6021C65.6281 55.6089 65.4844 55.6157 65.3201 55.6226C65.1626 55.6294 65.0394 55.6329 64.9504 55.6329C64.8409 55.6329 64.7861 55.6055 64.7861 55.5507C64.7861 55.5096 64.8135 55.4891 64.8683 55.4891C64.9504 55.4891 65.0531 55.4754 65.1763 55.448C65.3269 55.4206 65.4262 55.2324 65.4741 54.8833C65.5083 54.5958 65.5254 53.853 65.5254 52.6551V48.3116C65.3611 48.3116 65.1079 48.315 64.7656 48.3219C64.4233 48.3287 64.17 48.3321 64.0057 48.3321C63.684 48.339 63.4478 48.3664 63.2972 48.4143C63.1535 48.4554 63.0405 48.5375 62.9584 48.6607C62.8831 48.7771 62.8249 48.8832 62.7838 48.979C62.7564 49.0475 62.7222 49.0817 62.6811 49.0817C62.6469 49.0817 62.6298 49.0509 62.6298 48.9893C62.6298 48.8798 62.7051 48.5238 62.8557 47.9214C62.8968 47.7913 62.931 47.7263 62.9584 47.7263C62.9721 47.7263 63.0234 47.7468 63.1124 47.7879C63.2014 47.8221 63.3006 47.8427 63.4102 47.8495C63.7388 47.8838 64.0091 47.9009 64.2214 47.9009H68.072C68.3732 47.9009 68.6162 47.8838 68.801 47.8495C68.8421 47.8427 68.8831 47.8358 68.9242 47.829C68.9721 47.8221 69.0064 47.8153 69.0269 47.8085C69.0543 47.8016 69.0748 47.7982 69.0885 47.7982C69.1227 47.7982 69.1398 47.8393 69.1398 47.9214C69.1398 48.0378 69.133 48.25 69.1193 48.558C69.1125 48.8661 69.109 49.0304 69.109 49.0509C69.109 49.1399 69.0851 49.1844 69.0372 49.1844C68.9892 49.1844 68.9619 49.1262 68.955 49.0098C68.955 48.9961 68.9516 48.979 68.9448 48.9585C68.9448 48.9311 68.9448 48.9106 68.9448 48.8969C68.9105 48.5341 68.4895 48.3458 67.6818 48.3321C67.538 48.3321 67.3224 48.3287 67.0349 48.3219C66.7473 48.315 66.5317 48.3116 66.388 48.3116ZM71.2927 52.6551V50.8479C71.2927 49.5883 71.2859 48.849 71.2722 48.6299C71.2585 48.4451 71.2209 48.3116 71.1592 48.2295C71.1045 48.1405 70.995 48.0788 70.8307 48.0446C70.8101 48.0378 70.7827 48.0344 70.7485 48.0344C70.7143 48.0275 70.6732 48.0241 70.6253 48.0241C70.5842 48.0172 70.5534 48.0138 70.5329 48.0138C70.4439 48.0001 70.3994 47.9796 70.3994 47.9522C70.3994 47.8974 70.4542 47.8701 70.5637 47.8701C70.906 47.8701 71.2927 47.8803 71.724 47.9009C73.1342 47.9009 73.918 47.8974 74.0754 47.8906C74.3287 47.8769 74.4862 47.8564 74.5478 47.829C74.6025 47.8016 74.6402 47.7879 74.6607 47.7879C74.6881 47.7879 74.7018 47.8187 74.7018 47.8803C74.7018 47.894 74.6881 47.9522 74.6607 48.0549C74.6402 48.1507 74.6265 48.2534 74.6196 48.3629L74.5786 48.979C74.5649 49.0954 74.5375 49.1536 74.4964 49.1536C74.4417 49.1536 74.4143 49.1091 74.4143 49.0201C74.4143 48.8832 74.3972 48.7702 74.3629 48.6813C74.2945 48.469 74.048 48.3424 73.6236 48.3013C73.4456 48.2808 72.9767 48.2705 72.2169 48.2705C72.1758 48.2705 72.1553 48.3048 72.1553 48.3732V51.2072C72.1553 51.2757 72.1758 51.3099 72.2169 51.3099C73.1479 51.3099 73.6921 51.3031 73.8495 51.2894C74.1097 51.2689 74.2808 51.2107 74.3629 51.1148C74.4177 51.0464 74.4588 51.0121 74.4862 51.0121C74.5204 51.0121 74.5375 51.0395 74.5375 51.0943C74.5375 51.108 74.5307 51.1388 74.517 51.1867C74.5101 51.2346 74.4998 51.3031 74.4862 51.3921C74.4725 51.4811 74.4622 51.5735 74.4554 51.6693C74.4417 51.7925 74.4314 51.9397 74.4245 52.1108C74.4177 52.2751 74.4143 52.3607 74.4143 52.3676C74.4006 52.4702 74.3766 52.5216 74.3424 52.5216C74.2945 52.5216 74.2705 52.4668 74.2705 52.3573C74.2705 52.2478 74.2568 52.1519 74.2295 52.0698C74.1815 51.8781 74.0036 51.7651 73.6955 51.7309C73.3875 51.6967 72.898 51.6796 72.2271 51.6796C72.1792 51.6796 72.1553 51.7035 72.1553 51.7515V52.6551C72.1553 52.7167 72.1553 52.8947 72.1553 53.189C72.1553 53.4765 72.1553 53.7367 72.1553 53.9694C72.1553 54.2021 72.1553 54.3493 72.1553 54.4109C72.169 54.6368 72.1963 54.808 72.2374 54.9243C72.2853 55.0339 72.3709 55.1126 72.4941 55.1605C72.6447 55.2221 72.9288 55.2529 73.3464 55.2529C73.7571 55.2529 74.0652 55.2221 74.2705 55.1605C74.428 55.1126 74.5443 55.0339 74.6196 54.9243C74.6949 54.808 74.7531 54.6334 74.7942 54.4007C74.8147 54.298 74.8455 54.2466 74.8866 54.2466C74.9277 54.2466 74.9482 54.298 74.9482 54.4007C74.9482 54.4486 74.9311 54.6026 74.8969 54.8627C74.8627 55.1229 74.8353 55.3008 74.8147 55.3967C74.7805 55.5268 74.7326 55.6021 74.671 55.6226C74.6094 55.65 74.4725 55.6637 74.2603 55.6637C74.0617 55.6637 73.562 55.6534 72.7611 55.6329C71.9396 55.6123 71.5118 55.6021 71.4776 55.6021C71.4091 55.6021 71.2893 55.6089 71.1182 55.6226C70.947 55.6363 70.8135 55.6397 70.7177 55.6329C70.6082 55.6329 70.5534 55.6055 70.5534 55.5507C70.5534 55.5233 70.5911 55.5028 70.6664 55.4891C70.7964 55.4754 70.8752 55.4651 70.9025 55.4583C71.0258 55.4309 71.1148 55.3522 71.1695 55.2221C71.2311 55.0921 71.2654 54.849 71.2722 54.4931C71.2859 53.9591 71.2927 53.3465 71.2927 52.6551Z" fill="url(#paint2_linear_353_499)"/> <defs> <linearGradient id="paint0_linear_353_499" x1="-2.84352" y1="36.0968" x2="76.8144" y2="32.7794" gradientUnits="userSpaceOnUse"> <stop stop-color="#805A27"/> <stop offset="0.0918489" stop-color="#B38C56"/> <stop offset="0.281825" stop-color="#FBF0C8"/> <stop offset="0.474728" stop-color="#C59455"/> <stop offset="0.583111" stop-color="#B78A46"/> <stop offset="0.840031" stop-color="#FBF0C6"/> <stop offset="1" stop-color="#825A2D"/> </linearGradient> <linearGradient id="paint1_linear_353_499" x1="-4.58849" y1="40.7303" x2="74.3452" y2="21.9639" gradientUnits="userSpaceOnUse"> <stop stop-color="#805A27"/> <stop offset="0.0918489" stop-color="#B38C56"/> <stop offset="0.281825" stop-color="#FBF0C8"/> <stop offset="0.474728" stop-color="#C59455"/> <stop offset="0.583111" stop-color="#B78A46"/> <stop offset="0.840031" stop-color="#FBF0C6"/> <stop offset="1" stop-color="#825A2D"/> </linearGradient> <linearGradient id="paint2_linear_353_499" x1="-12.9625" y1="53.2103" x2="79.784" y2="26.6809" gradientUnits="userSpaceOnUse"> <stop stop-color="#805A27"/> <stop offset="0.0918489" stop-color="#B38C56"/> <stop offset="0.281825" stop-color="#FBF0C8"/> <stop offset="0.474728" stop-color="#C59455"/> <stop offset="0.583111" stop-color="#B78A46"/> <stop offset="0.840031" stop-color="#FBF0C6"/> <stop offset="1" stop-color="#825A2D"/> </linearGradient> </defs> </svg>