<svg width="85" height="29" viewBox="0 0 85 29" fill="none" xmlns="http://www.w3.org/2000/svg">
<path d="M75.3535 0C78.4284 0 80.8005 0.929126 82.4697 2.78711C84.1565 4.64509 85 7.18697 85 10.4121V27.4482C85 28.0005 84.5523 28.4482 84 28.4482H79.4375C78.8852 28.4482 78.4375 28.0005 78.4375 27.4482V11.7266C78.4375 9.74588 77.9713 8.22058 77.04 7.15137C76.1088 6.06479 74.712 5.52148 72.8496 5.52148C71.6024 5.52151 70.5131 5.81045 69.582 6.38867C68.6509 6.94948 67.9304 7.7385 67.4209 8.75488C66.9114 9.75395 66.6563 10.9287 66.6562 12.2783V27.4482C66.6562 28.0005 66.2085 28.4482 65.6562 28.4482H61.0426C60.5331 28.4482 60.1201 28.0352 60.1201 27.5258V24.9389C60.1201 24.786 59.9161 24.7235 59.8242 24.8457C58.8227 26.1603 57.4348 27.1857 55.6602 27.9219C53.9031 28.6405 51.8828 29 49.5986 29C47.1564 29 45.0656 28.6405 43.3262 27.9219C41.6042 27.2032 40.2506 26.1955 39.2666 24.8984C38.3005 23.584 37.7118 22.068 37.501 20.3506C37.4869 20.224 37.586 20.1133 37.7134 20.1133H43.6885C43.8306 20.1133 43.9536 20.2119 43.9844 20.3506C44.2304 21.5599 44.811 22.4971 45.7246 23.1631C46.6558 23.8291 47.9558 24.1621 49.625 24.1621C50.6968 24.1621 51.6107 24.0315 52.3662 23.7686C53.1217 23.5056 53.7014 23.1196 54.1055 22.6113C54.5272 22.103 54.7383 21.5068 54.7383 20.8232V20.7969C54.7382 19.9732 54.4567 19.3071 53.8945 18.7988C53.3323 18.273 52.3216 17.8438 50.8633 17.5107L46.2246 16.4854C44.4501 16.0822 42.9652 15.5302 41.7705 14.8291C40.5758 14.128 39.6794 13.2597 39.082 12.2256C38.8116 11.7494 37.8706 11.7612 37.7277 12.2898L33.5573 27.7093C33.4393 28.1454 33.0437 28.4482 32.592 28.4482H27.2177C26.7659 28.4482 26.3703 28.1453 26.2524 27.7092L20.9615 8.13586C20.9514 8.09833 20.9173 8.07227 20.8785 8.07227C20.8395 8.07227 20.8055 8.09838 20.7954 8.13596L15.5292 27.7081C15.4117 28.1448 15.0158 28.4482 14.5636 28.4482H8.84272C8.64269 28.4482 8.46743 28.3143 8.41485 28.1213L8.37106 27.9606C8.24398 27.4941 6.85203 27.4203 6.50977 27.7617C5.77181 28.4978 4.87549 28.8662 3.82129 28.8662C2.74974 28.8661 1.84527 28.4977 1.10742 27.7617C0.369497 27.0256 4.20852e-05 26.1317 0 25.0801C0 24.0109 0.369455 23.1083 1.10742 22.3721C1.8453 21.636 2.74967 21.2677 3.82129 21.2676C4.87553 21.2676 5.7718 21.6359 6.50977 22.3721C6.61287 22.4749 6.84488 22.358 6.80661 22.2175L1.25793 1.84185C1.08472 1.2058 1.56358 0.579102 2.2228 0.579102H6.69936C7.1687 0.579102 7.57488 0.905497 7.67592 1.36383L12.2063 21.915C12.2147 21.9532 12.2486 21.9805 12.2877 21.9805C12.3259 21.9805 12.3591 21.9546 12.3685 21.9177L17.6157 1.33211C17.7286 0.889117 18.1275 0.579102 18.5847 0.579102H23.3049C23.7616 0.579102 24.1603 0.888544 24.2736 1.33098L29.5464 21.9177C29.5559 21.9546 29.5892 21.9805 29.6273 21.9805C29.6664 21.9805 29.7003 21.9532 29.7088 21.915L34.2391 1.36383C34.3402 0.905497 34.7463 0.579102 35.2157 0.579102H40.1952C40.5482 0.579102 40.8048 0.91439 40.7125 1.25511C40.5655 1.79834 41.3534 2.27728 41.8248 1.96993C42.3372 1.63587 42.8993 1.33864 43.5107 1.07812C45.1975 0.359561 47.1564 0 49.3877 0C51.7069 9.58663e-07 53.6921 0.386044 55.3438 1.15723C56.9954 1.92847 58.2699 2.96268 59.166 4.25977C59.4047 4.59862 60.1201 4.42996 60.1201 4.01549V1.42734C60.1201 0.958332 60.5003 0.578125 60.9693 0.578125H65.6562C66.2085 0.578125 66.6562 1.02584 66.6562 1.57812V4.84633C66.6562 4.89992 66.6997 4.94336 66.7533 4.94336C66.7907 4.94336 66.8247 4.92179 66.841 4.88818C67.5611 3.40669 68.6236 2.2238 70.0293 1.34082C71.4701 0.4469 73.2451 1.49092e-05 75.3535 0ZM49.3877 4.83789C48.4213 4.83789 47.5778 4.97834 46.8574 5.25879C46.1548 5.5392 45.6101 5.93324 45.2236 6.44141C44.8546 6.94972 44.6699 7.54589 44.6699 8.22949V8.25586C44.6699 8.78166 44.8019 9.25513 45.0654 9.67578C45.329 10.0963 45.7504 10.4648 46.3301 10.7803C46.9098 11.0782 47.6832 11.3405 48.6494 11.5684L53.2881 12.5938C56.1872 13.2423 58.2525 14.1714 59.4824 15.3809C59.7033 15.5949 60.1201 15.4477 60.1201 15.1401V9.91309C60.1201 9.3608 59.6724 8.91309 59.1201 8.91309H54.7653C54.6444 8.91309 54.5424 8.82309 54.5273 8.70312C54.3868 7.58132 53.8766 6.66104 52.998 5.94238C52.1195 5.20624 50.9163 4.83789 49.3877 4.83789Z" fill="white"/>
</svg>
