<svg width="48" height="48" viewBox="0 0 48 48" fill="none" xmlns="http://www.w3.org/2000/svg">
<path fill-rule="evenodd" clip-rule="evenodd" d="M24 44C35.0457 44 44 35.0457 44 24C44 12.9543 35.0457 4 24 4C12.9543 4 4 12.9543 4 24C4 35.0457 12.9543 44 24 44ZM19.5 18C19.5 17.1716 20.1716 16.5 21 16.5H30C30.8284 16.5 31.5 17.1716 31.5 18V27C31.5 27.8284 30.8284 28.5 30 28.5C29.1716 28.5 28.5 27.8284 28.5 27V21.6213L19.0607 31.0607C18.4749 31.6464 17.5251 31.6464 16.9393 31.0607C16.3536 30.4749 16.3536 29.5251 16.9393 28.9393L26.3787 19.5H21C20.1716 19.5 19.5 18.8284 19.5 18Z" fill="#0B1714"/>
</svg>
