<svg width="44" height="44" viewBox="0 0 44 44" fill="none" xmlns="http://www.w3.org/2000/svg">
<path d="M22 40.3334C32.1252 40.3334 40.3333 32.1252 40.3333 22C40.3333 20.1511 40.0596 18.366 39.5505 16.6832C39.4559 16.3706 39.0869 16.2446 38.8007 16.4019C37.6235 17.0487 36.2714 17.4167 34.8333 17.4167C30.2769 17.4167 26.5833 13.723 26.5833 9.16669C26.5833 7.72863 26.9512 6.3765 27.5981 5.19932C27.7554 4.91308 27.6294 4.54409 27.3168 4.44951C25.634 3.9404 23.8489 3.66669 22 3.66669C11.8747 3.66669 3.66663 11.8748 3.66663 22C3.66663 24.9328 4.35526 27.7047 5.57964 30.1629C5.90501 30.8161 6.01331 31.5628 5.82468 32.2678L4.73273 36.3489C4.25871 38.1205 5.87949 39.7413 7.6511 39.2673L11.7322 38.1753C12.4372 37.9867 13.1838 38.095 13.8371 38.4203C16.2953 39.6447 19.0672 40.3334 22 40.3334Z" fill="white" fill-opacity="0.9"/>
<circle cx="34.8334" cy="9.16669" r="5.5" fill="white" fill-opacity="0.9"/>
</svg>
