<svg width="39" height="37" viewBox="0 0 39 37" fill="none" xmlns="http://www.w3.org/2000/svg">
<path fill-rule="evenodd" clip-rule="evenodd" d="M-8.01375e-07 18.3334C-7.68181e-07 19.0928 0.615608 19.7084 1.375 19.7084L21.4914 19.7084L17.8968 22.7894C17.3203 23.2836 17.2535 24.1517 17.7477 24.7283C18.2419 25.3048 19.1099 25.3716 19.6865 24.8774L26.1032 19.3774C26.4079 19.1162 26.5833 18.7348 26.5833 18.3334C26.5833 17.932 26.4079 17.5507 26.1032 17.2894L19.6865 11.7894C19.1099 11.2952 18.2419 11.362 17.7477 11.9386C17.2535 12.5151 17.3203 13.3832 17.8968 13.8774L21.4914 16.9584L1.375 16.9584C0.615608 16.9584 -8.3457e-07 17.574 -8.01375e-07 18.3334Z" fill="#353535"/>
<path d="M14.2083 14.2085L14.9018 14.2085C14.4278 12.8636 14.665 11.3095 15.6597 10.149C17.1423 8.41926 19.7465 8.21894 21.4762 9.70155L27.8928 15.2016C28.8071 15.9852 29.3333 17.1293 29.3333 18.3335C29.3333 19.5377 28.8071 20.6817 27.8928 21.4654L21.4762 26.9654C19.7465 28.448 17.1423 28.2477 15.6597 26.518C14.665 25.3575 14.4278 23.8034 14.9018 22.4585L14.2083 22.4585L14.2083 25.6667C14.2083 30.8522 14.2083 33.4449 15.8192 35.0558C17.4302 36.6667 20.0229 36.6667 25.2083 36.6667L27.0417 36.6667C32.2271 36.6667 34.8199 36.6667 36.4308 35.0558C38.0417 33.4449 38.0417 30.8522 38.0417 25.6668L38.0417 11.0001C38.0417 5.81465 38.0417 3.2219 36.4308 1.61099C34.8199 7.85866e-05 32.2271 7.87e-05 27.0417 7.89266e-05L25.2083 7.90068e-05C20.0229 7.92334e-05 17.4302 7.93467e-05 15.8192 1.61099C14.2083 3.2219 14.2083 5.81463 14.2083 11.0001L14.2083 14.2085Z" fill="#353535"/>
</svg>
