<svg width="64" height="15" viewBox="0 0 64 15" fill="none" xmlns="http://www.w3.org/2000/svg">
<path opacity="0.5" d="M6.04464 0H9.63757V7.37944H6.46486L6.04464 0ZM7.26329 8.61951L6.46486 7.37944H9.63757L9.21088 8.43918L7.26329 8.61951ZM0 7.37944L0.69436 4.21736L8.86015 6.11904L7.26329 8.61951L0 7.37944ZM16 6.83656L8.86015 8.61951L7.26329 6.11904L14.946 3.99539L16 6.83656ZM14.2451 13.3404L10.8012 15L7.26329 8.61951L8.86015 6.11904L14.2451 13.3404ZM2.54583 13.7713L7.26329 6.13937L8.86015 8.61951L5.89083 15L2.54583 13.7713Z" fill="#434343"/>
<path opacity="0.5" d="M22.0446 0H25.6376V7.37944H22.4649L22.0446 0ZM23.2633 8.61951L22.4649 7.37944H25.6376L25.2109 8.43918L23.2633 8.61951ZM16 7.37944L16.6944 4.21736L24.8602 6.11904L23.2633 8.61951L16 7.37944ZM32 6.83656L24.8602 8.61951L23.2633 6.11904L30.946 3.99539L32 6.83656ZM30.2451 13.3404L26.8012 15L23.2633 8.61951L24.8602 6.11904L30.2451 13.3404ZM18.5458 13.7713L23.2633 6.13937L24.8602 8.61951L21.8908 15L18.5458 13.7713Z" fill="#434343"/>
<path opacity="0.5" d="M38.0446 0H41.6376V7.37944H38.4649L38.0446 0ZM39.2633 8.61951L38.4649 7.37944H41.6376L41.2109 8.43918L39.2633 8.61951ZM32 7.37944L32.6944 4.21736L40.8602 6.11904L39.2633 8.61951L32 7.37944ZM48 6.83656L40.8602 8.61951L39.2633 6.11904L46.946 3.99539L48 6.83656ZM46.2451 13.3404L42.8012 15L39.2633 8.61951L40.8602 6.11904L46.2451 13.3404ZM34.5458 13.7713L39.2633 6.13937L40.8602 8.61951L37.8908 15L34.5458 13.7713Z" fill="#434343"/>
<path d="M54.0446 0H57.6376V7.37944H54.4649L54.0446 0ZM55.2633 8.61951L54.4649 7.37944H57.6376L57.2109 8.43918L55.2633 8.61951ZM48 7.37944L48.6944 4.21736L56.8602 6.11904L55.2633 8.61951L48 7.37944ZM64 6.83656L56.8602 8.61951L55.2633 6.11904L62.946 3.99539L64 6.83656ZM62.2451 13.3404L58.8012 15L55.2633 8.61951L56.8602 6.11904L62.2451 13.3404ZM50.5458 13.7713L55.2633 6.13937L56.8602 8.61951L53.8908 15L50.5458 13.7713Z" fill="#434343"/>
</svg>
